ffmpeg version 3.4.6-0ubuntu0.18.04.1 Copyright (c) 2000-2019 the FFmpeg developers
  built with gcc 7 (Ubuntu 7.3.0-16ubuntu3)
  configuration: --prefix=/usr --extra-version=0ubuntu0.18.04.1 --toolchain=hardened --libdir=/usr/lib/x86_64-linux-gnu --incdir=/usr/include/x86_64-linux-gnu --enable-gpl --disable-stripping --enable-avresample --enable-avisynth --enable-gnutls --enable-ladspa --enable-libass --enable-libbluray --enable-libbs2b --enable-libcaca --enable-libcdio --enable-libflite --enable-libfontconfig --enable-libfreetype --enable-libfribidi --enable-libgme --enable-libgsm --enable-libmp3lame --enable-libmysofa --enable-libopenjpeg --enable-libopenmpt --enable-libopus --enable-libpulse --enable-librubberband --enable-librsvg --enable-libshine --enable-libsnappy --enable-libsoxr --enable-libspeex --enable-libssh --enable-libtheora --enable-libtwolame --enable-libvorbis --enable-libvpx --enable-libwavpack --enable-libwebp --enable-libx265 --enable-libxml2 --enable-libxvid --enable-libzmq --enable-libzvbi --enable-omx --enable-openal --enable-opengl --enable-sdl2 --enable-libdc1394 --enable-libdrm --enable-libiec61883 --enable-chromaprint --enable-frei0r --enable-libopencv --enable-libx264 --enable-shared
  WARNING: library configuration mismatch
  avcodec     configuration: --prefix=/usr --extra-version=0ubuntu0.18.04.1 --toolchain=hardened --libdir=/usr/lib/x86_64-linux-gnu --incdir=/usr/include/x86_64-linux-gnu --enable-gpl --disable-stripping --enable-avresample --enable-avisynth --enable-gnutls --enable-ladspa --enable-libass --enable-libbluray --enable-libbs2b --enable-libcaca --enable-libcdio --enable-libflite --enable-libfontconfig --enable-libfreetype --enable-libfribidi --enable-libgme --enable-libgsm --enable-libmp3lame --enable-libmysofa --enable-libopenjpeg --enable-libopenmpt --enable-libopus --enable-libpulse --enable-librubberband --enable-librsvg --enable-libshine --enable-libsnappy --enable-libsoxr --enable-libspeex --enable-libssh --enable-libtheora --enable-libtwolame --enable-libvorbis --enable-libvpx --enable-libwavpack --enable-libwebp --enable-libx265 --enable-libxml2 --enable-libxvid --enable-libzmq --enable-libzvbi --enable-omx --enable-openal --enable-opengl --enable-sdl2 --enable-libdc1394 --enable-libdrm --enable-libiec61883 --enable-chromaprint --enable-frei0r --enable-libopencv --enable-libx264 --enable-shared --enable-version3 --disable-doc --disable-programs --enable-libopencore_amrnb --enable-libopencore_amrwb --enable-libtesseract --enable-libvo_amrwbenc
  libavutil      55. 78.100 / 55. 78.100
  libavcodec     57.107.100 / 57.107.100
  libavformat    57. 83.100 / 57. 83.100
  libavdevice    57. 10.100 / 57. 10.100
  libavfilter     6.107.100 /  6.107.100
  libavresample   3.  7.  0 /  3.  7.  0
  libswscale      4.  8.100 /  4.  8.100
  libswresample   2.  9.100 /  2.  9.100
  libpostproc    54.  7.100 / 54.  7.100
[dash @ 0x55711ebb68c0] Opening 'https://bitmovin-a.akamaihd.net/content/MI201109210084_1/video/180_250000/dash/init.mp4' for reading
[dash @ 0x55711ebb68c0] Could not read complete fragment.
[dash @ 0x55711ebb68c0] Opening 'https://bitmovin-a.akamaihd.net/content/MI201109210084_1/video/180_250000/dash/segment_0.m4s' for reading
[dash @ 0x55711ebb68c0] Opening 'https://bitmovin-a.akamaihd.net/content/MI201109210084_1/audio/1_stereo_128000/dash/init.mp4' for reading
[dash @ 0x55711ebb68c0] Could not read complete fragment.
[dash @ 0x55711ebb68c0] Opening 'https://bitmovin-a.akamaihd.net/content/MI201109210084_1/audio/1_stereo_128000/dash/segment_0.m4s' for reading
Input #0, dash, from 'https://bitmovin-a.akamaihd.net/content/MI201109210084_1/mpds/f08e80da-bf1d-4e3d-8899-f0f6155f6efa.mpd':
  Duration: 00:03:30.00, start: 0.000000, bitrate: 0 kb/s
  Program 0 
    Stream #0:0: Video: h264 (Main) (avc1 / 0x31637661), yuv420p, 320x180 [SAR 1:1 DAR 16:9], 267 kb/s, 25 fps, 25 tbr, 25k tbn, 50 tbc
    Stream #0:1: Audio: aac (LC) (mp4a / 0x6134706D), 48000 Hz, stereo, fltp, 125 kb/s
Stream mapping:
  Stream #0:0 -> #0:0 (h264 (native) -> h264 (libx264))
  Stream #0:1 -> #0:1 (aac (native) -> aac (native))
Press [q] to stop, [?] for help
[libx264 @ 0x55711f2a6560] using SAR=1/1
[libx264 @ 0x55711f2a6560] using cpu capabilities: MMX2 SSE2Fast SSSE3 SSE4.2 AVX FMA3 BMI2 AVX2
[libx264 @ 0x55711f2a6560] profile High, level 1.2
[libx264 @ 0x55711f2a6560] 264 - core 152 r2854 e9a5903 - H.264/MPEG-4 AVC codec - Copyleft 2003-2017 - http://www.videolan.org/x264.html - options: cabac=1 ref=3 deblock=1:0:0 analyse=0x3:0x113 me=hex subme=7 psy=1 psy_rd=1.00:0.00 mixed_ref=1 me_range=16 chroma_me=1 trellis=1 8x8dct=1 cqm=0 deadzone=21,11 fast_pskip=1 chroma_qp_offset=-2 threads=6 lookahead_threads=1 sliced_threads=0 nr=0 decimate=1 interlaced=0 bluray_compat=0 constrained_intra=0 bframes=3 b_pyramid=2 b_adapt=1 b_bias=0 direct=1 weightb=1 open_gop=0 weightp=2 keyint=250 keyint_min=25 scenecut=40 intra_refresh=0 rc_lookahead=40 rc=crf mbtree=1 crf=23.0 qcomp=0.60 qpmin=0 qpmax=69 qpstep=4 ip_ratio=1.40 aq=1:1.00
Output #0, mp4, to 'show.3.mp4':
  Metadata:
    encoder         : Lavf57.83.100
    Stream #0:0: Video: h264 (libx264) (avc1 / 0x31637661), yuv420p, 320x180 [SAR 1:1 DAR 16:9], q=-1--1, 25 fps, 12800 tbn, 25 tbc
    Metadata:
      encoder         : Lavc57.107.100 libx264
    Side data:
      cpb: bitrate max/min/avg: 0/0/0 buffer size: 0 vbv_delay: -1
    Stream #0:1: Audio: aac (LC) (mp4a / 0x6134706D), 48000 Hz, stereo, fltp, 128 kb/s
    Metadata:
      encoder         : Lavc57.107.100 aac
[dash @ 0x55711ebb68c0] Opening 'https://bitmovin-a.akamaihd.net/content/MI201109210084_1/audio/1_stereo_128000/dash/segment_1.m4s' for reading
[dash @ 0x55711ebb68c0] Opening 'https://bitmovin-a.akamaihd.net/content/MI201109210084_1/video/180_250000/dash/segment_1.m4s' for reading
frame=   95 fps=0.0 q=28.0 size=       0kB time=00:00:04.13 bitrate=   0.1kbits/s dup=4 drop=0 speed=7.35x    [dash @ 0x55711ebb68c0] Opening 'https://bitmovin-a.akamaihd.net/content/MI201109210084_1/audio/1_stereo_128000/dash/segment_2.m4s' for reading
[dash @ 0x55711ebb68c0] Opening 'https://bitmovin-a.akamaihd.net/content/MI201109210084_1/video/180_250000/dash/segment_2.m4s' for reading
frame=  195 fps=160 q=28.0 size=       0kB time=00:00:08.12 bitrate=   0.0kbits/s dup=4 drop=0 speed=6.68x    [dash @ 0x55711ebb68c0] Opening 'https://bitmovin-a.akamaihd.net/content/MI201109210084_1/audio/1_stereo_128000/dash/segment_3.m4s' for reading
[dash @ 0x55711ebb68c0] Opening 'https://bitmovin-a.akamaihd.net/content/MI201109210084_1/video/180_250000/dash/segment_3.m4s' for reading
frame=  295 fps=154 q=28.0 size=     256kB time=00:00:12.13 bitrate= 172.8kbits/s dup=4 drop=0 speed=6.33x    [dash @ 0x55711ebb68c0] Opening 'https://bitmovin-a.akamaihd.net/content/MI201109210084_1/audio/1_stereo_128000/dash/segment_4.m4s' for reading
[dash @ 0x55711ebb68c0] Opening 'https://bitmovin-a.akamaihd.net/content/MI201109210084_1/video/180_250000/dash/segment_4.m4s' for reading
frame=  395 fps=159 q=28.0 size=     256kB time=00:00:16.12 bitrate= 130.1kbits/s dup=4 drop=0 speed=6.49x    [dash @ 0x55711ebb68c0] Opening 'https://bitmovin-a.akamaihd.net/content/MI201109210084_1/audio/1_stereo_128000/dash/segment_5.m4s' for reading
frame=  487 fps=152 q=28.0 size=     512kB time=00:00:19.94 bitrate= 210.3kbits/s dup=4 drop=0 speed=6.21x    [dash @ 0x55711ebb68c0] Opening 'https://bitmovin-a.akamaihd.net/content/MI201109210084_1/video/180_250000/dash/segment_5.m4s' for reading
[dash @ 0x55711ebb68c0] Opening 'https://bitmovin-a.akamaihd.net/content/MI201109210084_1/audio/1_stereo_128000/dash/segment_6.m4s' for reading
frame=  587 fps=132 q=28.0 size=     768kB time=00:00:23.91 bitrate= 263.1kbits/s dup=4 drop=0 speed=5.37x    [dash @ 0x55711ebb68c0] Opening 'https://bitmovin-a.akamaihd.net/content/MI201109210084_1/video/180_250000/dash/segment_6.m4s' for reading
[dash @ 0x55711ebb68c0] Opening 'https://bitmovin-a.akamaihd.net/content/MI201109210084_1/audio/1_stereo_128000/dash/segment_7.m4s' for reading
frame=  689 fps=132 q=28.0 size=    1024kB time=00:00:27.92 bitrate= 300.4kbits/s dup=4 drop=0 speed=5.35x    [dash @ 0x55711ebb68c0] Opening 'https://bitmovin-a.akamaihd.net/content/MI201109210084_1/video/180_250000/dash/segment_7.m4s' for reading
frame=  695 fps=108 q=28.0 size=    1024kB time=00:00:28.13 bitrate= 298.1kbits/s dup=4 drop=0 speed=4.35x    [dash @ 0x55711ebb68c0] Opening 'https://bitmovin-a.akamaihd.net/content/MI201109210084_1/audio/1_stereo_128000/dash/segment_8.m4s' for reading
frame=  787 fps=112 q=28.0 size=    1024kB time=00:00:31.91 bitrate= 262.9kbits/s dup=4 drop=0 speed=4.52x    [dash @ 0x55711ebb68c0] Opening 'https://bitmovin-a.akamaihd.net/content/MI201109210084_1/video/180_250000/dash/segment_8.m4s' for reading
[dash @ 0x55711ebb68c0] Opening 'https://bitmovin-a.akamaihd.net/content/MI201109210084_1/audio/1_stereo_128000/dash/segment_9.m4s' for reading
frame=  889 fps=115 q=28.0 size=    1280kB time=00:00:35.90 bitrate= 292.1kbits/s dup=4 drop=0 speed=4.66x    [dash @ 0x55711ebb68c0] Opening 'https://bitmovin-a.akamaihd.net/content/MI201109210084_1/video/180_250000/dash/segment_9.m4s' for reading
[dash @ 0x55711ebb68c0] Opening 'https://bitmovin-a.akamaihd.net/content/MI201109210084_1/audio/1_stereo_128000/dash/segment_10.m4s' for reading
frame=  986 fps=120 q=28.0 size=    1280kB time=00:00:39.89 bitrate= 262.9kbits/s dup=4 drop=0 speed=4.84x    [dash @ 0x55711ebb68c0] Opening 'https://bitmovin-a.akamaihd.net/content/MI201109210084_1/video/180_250000/dash/segment_10.m4s' for reading
[dash @ 0x55711ebb68c0] Opening 'https://bitmovin-a.akamaihd.net/content/MI201109210084_1/audio/1_stereo_128000/dash/segment_11.m4s' for reading
frame= 1086 fps=117 q=28.0 size=    1536kB time=00:00:43.86 bitrate= 286.9kbits/s dup=4 drop=0 speed=4.74x    [dash @ 0x55711ebb68c0] Opening 'https://bitmovin-a.akamaihd.net/content/MI201109210084_1/video/180_250000/dash/segment_11.m4s' for reading
[dash @ 0x55711ebb68c0] Opening 'https://bitmovin-a.akamaihd.net/content/MI201109210084_1/audio/1_stereo_128000/dash/segment_12.m4s' for reading
frame= 1187 fps=113 q=28.0 size=    1536kB time=00:00:47.87 bitrate= 262.9kbits/s dup=4 drop=0 speed=4.54x    [dash @ 0x55711ebb68c0] Opening 'https://bitmovin-a.akamaihd.net/content/MI201109210084_1/video/180_250000/dash/segment_12.m4s' for reading
frame= 1235 fps=112 q=28.0 size=    1792kB time=00:00:49.83 bitrate= 294.6kbits/s dup=4 drop=0 speed=4.52x    [dash @ 0x55711ebb68c0] Opening 'https://bitmovin-a.akamaihd.net/content/MI201109210084_1/audio/1_stereo_128000/dash/segment_13.m4s' for reading
[dash @ 0x55711ebb68c0] Opening 'https://bitmovin-a.akamaihd.net/content/MI201109210084_1/video/180_250000/dash/segment_13.m4s' for reading
frame= 1295 fps=111 q=25.0 size=    1792kB time=00:00:52.13 bitrate= 281.6kbits/s dup=4 drop=0 speed=4.45x    [dash @ 0x55711ebb68c0] Opening 'https://bitmovin-a.akamaihd.net/content/MI201109210084_1/audio/1_stereo_128000/dash/segment_14.m4s' for reading
frame= 1387 fps=114 q=28.0 size=    2048kB time=00:00:55.85 bitrate= 300.4kbits/s dup=4 drop=0 speed=4.58x    [dash @ 0x55711ebb68c0] Opening 'https://bitmovin-a.akamaihd.net/content/MI201109210084_1/video/180_250000/dash/segment_14.m4s' for reading
frame= 1454 fps=114 q=28.0 size=    2048kB time=00:00:58.58 bitrate= 286.4kbits/s dup=4 drop=0 speed=4.61x    [dash @ 0x55711ebb68c0] Opening 'https://bitmovin-a.akamaihd.net/content/MI201109210084_1/audio/1_stereo_128000/dash/segment_15.m4s' for reading
[dash @ 0x55711ebb68c0] Opening 'https://bitmovin-a.akamaihd.net/content/MI201109210084_1/video/180_250000/dash/segment_15.m4s' for reading
frame= 1495 fps=112 q=28.0 size=    2048kB time=00:01:00.13 bitrate= 279.0kbits/s dup=4 drop=0 speed=4.51x    [dash @ 0x55711ebb68c0] Opening 'https://bitmovin-a.akamaihd.net/content/MI201109210084_1/audio/1_stereo_128000/dash/segment_16.m4s' for reading
[dash @ 0x55711ebb68c0] Opening 'https://bitmovin-a.akamaihd.net/content/MI201109210084_1/video/180_250000/dash/segment_16.m4s' for reading
frame= 1595 fps=113 q=28.0 size=    2304kB time=00:01:04.12 bitrate= 294.3kbits/s dup=4 drop=0 speed=4.55x    [dash @ 0x55711ebb68c0] Opening 'https://bitmovin-a.akamaihd.net/content/MI201109210084_1/audio/1_stereo_128000/dash/segment_17.m4s' for reading
[dash @ 0x55711ebb68c0] Opening 'https://bitmovin-a.akamaihd.net/content/MI201109210084_1/video/180_250000/dash/segment_17.m4s' for reading
frame= 1695 fps=115 q=28.0 size=    2560kB time=00:01:08.13 bitrate= 307.8kbits/s dup=4 drop=0 speed=4.63x    [dash @ 0x55711ebb68c0] Opening 'https://bitmovin-a.akamaihd.net/content/MI201109210084_1/audio/1_stereo_128000/dash/segment_18.m4s' for reading
[dash @ 0x55711ebb68c0] Opening 'https://bitmovin-a.akamaihd.net/content/MI201109210084_1/video/180_250000/dash/segment_18.m4s' for reading
frame= 1795 fps=117 q=28.0 size=    2560kB time=00:01:12.12 bitrate= 290.8kbits/s dup=4 drop=0 speed=4.72x    [dash @ 0x55711ebb68c0] Opening 'https://bitmovin-a.akamaihd.net/content/MI201109210084_1/audio/1_stereo_128000/dash/segment_19.m4s' for reading
[dash @ 0x55711ebb68c0] Opening 'https://bitmovin-a.akamaihd.net/content/MI201109210084_1/video/180_250000/dash/segment_19.m4s' for reading
frame= 1895 fps=120 q=28.0 size=    2816kB time=00:01:16.13 bitrate= 303.0kbits/s dup=4 drop=0 speed=4.81x    [dash @ 0x55711ebb68c0] Opening 'https://bitmovin-a.akamaihd.net/content/MI201109210084_1/audio/1_stereo_128000/dash/segment_20.m4s' for reading
[dash @ 0x55711ebb68c0] Opening 'https://bitmovin-a.akamaihd.net/content/MI201109210084_1/video/180_250000/dash/segment_20.m4s' for reading
frame= 1995 fps=121 q=28.0 size=    2816kB time=00:01:20.12 bitrate= 287.9kbits/s dup=4 drop=0 speed=4.87x    [dash @ 0x55711ebb68c0] Opening 'https://bitmovin-a.akamaihd.net/content/MI201109210084_1/audio/1_stereo_128000/dash/segment_21.m4s' for reading
frame= 2085 fps=123 q=28.0 size=    2816kB time=00:01:23.77 bitrate= 275.4kbits/s dup=4 drop=0 speed=4.94x    [dash @ 0x55711ebb68c0] Opening 'https://bitmovin-a.akamaihd.net/content/MI201109210084_1/video/180_250000/dash/segment_21.m4s' for reading
[dash @ 0x55711ebb68c0] Opening 'https://bitmovin-a.akamaihd.net/content/MI201109210084_1/audio/1_stereo_128000/dash/segment_22.m4s' for reading
frame= 2183 fps=124 q=28.0 size=    3072kB time=00:01:27.76 bitrate= 286.7kbits/s dup=4 drop=0 speed=   5x    [dash @ 0x55711ebb68c0] Opening 'https://bitmovin-a.akamaihd.net/content/MI201109210084_1/video/180_250000/dash/segment_22.m4s' for reading
[dash @ 0x55711ebb68c0] Opening 'https://bitmovin-a.akamaihd.net/content/MI201109210084_1/audio/1_stereo_128000/dash/segment_23.m4s' for reading
frame= 2284 fps=126 q=28.0 size=    3072kB time=00:01:31.75 bitrate= 274.3kbits/s dup=4 drop=0 speed=5.06x    [dash @ 0x55711ebb68c0] Opening 'https://bitmovin-a.akamaihd.net/content/MI201109210084_1/video/180_250000/dash/segment_23.m4s' for reading
[dash @ 0x55711ebb68c0] Opening 'https://bitmovin-a.akamaihd.net/content/MI201109210084_1/audio/1_stereo_128000/dash/segment_24.m4s' for reading
frame= 2383 fps=127 q=28.0 size=    3328kB time=00:01:35.74 bitrate= 284.8kbits/s dup=4 drop=0 speed=5.11x    [dash @ 0x55711ebb68c0] Opening 'https://bitmovin-a.akamaihd.net/content/MI201109210084_1/video/180_250000/dash/segment_24.m4s' for reading
[dash @ 0x55711ebb68c0] Opening 'https://bitmovin-a.akamaihd.net/content/MI201109210084_1/audio/1_stereo_128000/dash/segment_25.m4s' for reading
frame= 2485 fps=128 q=28.0 size=    3584kB time=00:01:39.71 bitrate= 294.5kbits/s dup=4 drop=0 speed=5.15x    [dash @ 0x55711ebb68c0] Opening 'https://bitmovin-a.akamaihd.net/content/MI201109210084_1/video/180_250000/dash/segment_25.m4s' for reading
[dash @ 0x55711ebb68c0] Opening 'https://bitmovin-a.akamaihd.net/content/MI201109210084_1/audio/1_stereo_128000/dash/segment_26.m4s' for reading
frame= 2584 fps=129 q=28.0 size=    3584kB time=00:01:43.72 bitrate= 283.1kbits/s dup=4 drop=0 speed=5.19x    [dash @ 0x55711ebb68c0] Opening 'https://bitmovin-a.akamaihd.net/content/MI201109210084_1/video/180_250000/dash/segment_26.m4s' for reading
frame= 2623 fps=128 q=28.0 size=    3840kB time=00:01:45.34 bitrate= 298.6kbits/s dup=4 drop=0 speed=5.14x    [dash @ 0x55711ebb68c0] Opening 'https://bitmovin-a.akamaihd.net/content/MI201109210084_1/audio/1_stereo_128000/dash/segment_27.m4s' for reading
[dash @ 0x55711ebb68c0] Opening 'https://bitmovin-a.akamaihd.net/content/MI201109210084_1/video/180_250000/dash/segment_27.m4s' for reading
frame= 2695 fps=128 q=28.0 size=    3840kB time=00:01:48.13 bitrate= 290.9kbits/s dup=4 drop=0 speed=5.13x    [dash @ 0x55711ebb68c0] Opening 'https://bitmovin-a.akamaihd.net/content/MI201109210084_1/audio/1_stereo_128000/dash/segment_28.m4s' for reading
[dash @ 0x55711ebb68c0] Opening 'https://bitmovin-a.akamaihd.net/content/MI201109210084_1/video/180_250000/dash/segment_28.m4s' for reading
frame= 2795 fps=129 q=28.0 size=    4096kB time=00:01:52.12 bitrate= 299.3kbits/s dup=4 drop=0 speed=5.17x    [dash @ 0x55711ebb68c0] Opening 'https://bitmovin-a.akamaihd.net/content/MI201109210084_1/audio/1_stereo_128000/dash/segment_29.m4s' for reading
frame= 2883 fps=129 q=28.0 size=    4096kB time=00:01:55.69 bitrate= 290.0kbits/s dup=4 drop=0 speed=5.19x    [dash @ 0x55711ebb68c0] Opening 'https://bitmovin-a.akamaihd.net/content/MI201109210084_1/video/180_250000/dash/segment_29.m4s' for reading
frame= 2980 fps=131 q=28.0 size=    4352kB time=00:01:59.55 bitrate= 298.2kbits/s dup=4 drop=0 speed=5.25x    [dash @ 0x55711ebb68c0] Opening 'https://bitmovin-a.akamaihd.net/content/MI201109210084_1/audio/1_stereo_128000/dash/segment_30.m4s' for reading
[dash @ 0x55711ebb68c0] Opening 'https://bitmovin-a.akamaihd.net/content/MI201109210084_1/video/180_250000/dash/segment_30.m4s' for reading
frame= 3000 fps=129 q=28.0 size=    4352kB time=00:02:00.44 bitrate= 296.0kbits/s dup=4 drop=0 speed=5.17x    [dash @ 0x55711ebb68c0] Opening 'https://bitmovin-a.akamaihd.net/content/MI201109210084_1/audio/1_stereo_128000/dash/segment_31.m4s' for reading
[dash @ 0x55711ebb68c0] Opening 'https://bitmovin-a.akamaihd.net/content/MI201109210084_1/video/180_250000/dash/segment_31.m4s' for reading
frame= 3095 fps=129 q=28.0 size=    4608kB time=00:02:04.13 bitrate= 304.1kbits/s dup=4 drop=0 speed=5.17x    [dash @ 0x55711ebb68c0] Opening 'https://bitmovin-a.akamaihd.net/content/MI201109210084_1/audio/1_stereo_128000/dash/segment_32.m4s' for reading
[dash @ 0x55711ebb68c0] Opening 'https://bitmovin-a.akamaihd.net/content/MI201109210084_1/video/180_250000/dash/segment_32.m4s' for reading
frame= 3195 fps=130 q=28.0 size=    4864kB time=00:02:08.12 bitrate= 311.0kbits/s dup=4 drop=0 speed= 5.2x    [dash @ 0x55711ebb68c0] Opening 'https://bitmovin-a.akamaihd.net/content/MI201109210084_1/audio/1_stereo_128000/dash/segment_33.m4s' for reading
[dash @ 0x55711ebb68c0] Opening 'https://bitmovin-a.akamaihd.net/content/MI201109210084_1/video/180_250000/dash/segment_33.m4s' for reading
frame= 3295 fps=130 q=28.0 size=    4864kB time=00:02:12.13 bitrate= 301.5kbits/s dup=4 drop=0 speed=5.23x    [dash @ 0x55711ebb68c0] Opening 'https://bitmovin-a.akamaihd.net/content/MI201109210084_1/audio/1_stereo_128000/dash/segment_34.m4s' for reading
[dash @ 0x55711ebb68c0] Opening 'https://bitmovin-a.akamaihd.net/content/MI201109210084_1/video/180_250000/dash/segment_34.m4s' for reading
frame= 3395 fps=131 q=28.0 size=    5120kB time=00:02:16.12 bitrate= 308.1kbits/s dup=4 drop=0 speed=5.26x    [dash @ 0x55711ebb68c0] Opening 'https://bitmovin-a.akamaihd.net/content/MI201109210084_1/audio/1_stereo_128000/dash/segment_35.m4s' for reading
[dash @ 0x55711ebb68c0] Opening 'https://bitmovin-a.akamaihd.net/content/MI201109210084_1/video/180_250000/dash/segment_35.m4s' for reading
frame= 3495 fps=132 q=28.0 size=    5376kB time=00:02:20.13 bitrate= 314.3kbits/s dup=4 drop=0 speed=5.28x    [dash @ 0x55711ebb68c0] Opening 'https://bitmovin-a.akamaihd.net/content/MI201109210084_1/audio/1_stereo_128000/dash/segment_36.m4s' for reading
frame= 3581 fps=132 q=28.0 size=    5632kB time=00:02:23.59 bitrate= 321.3kbits/s dup=4 drop=0 speed=5.29x    [dash @ 0x55711ebb68c0] Opening 'https://bitmovin-a.akamaihd.net/content/MI201109210084_1/video/180_250000/dash/segment_36.m4s' for reading
[dash @ 0x55711ebb68c0] Opening 'https://bitmovin-a.akamaihd.net/content/MI201109210084_1/audio/1_stereo_128000/dash/segment_37.m4s' for reading
frame= 3680 fps=133 q=28.0 size=    5888kB time=00:02:27.60 bitrate= 326.8kbits/s dup=4 drop=0 speed=5.32x    [dash @ 0x55711ebb68c0] Opening 'https://bitmovin-a.akamaihd.net/content/MI201109210084_1/video/180_250000/dash/segment_37.m4s' for reading
[dash @ 0x55711ebb68c0] Opening 'https://bitmovin-a.akamaihd.net/content/MI201109210084_1/audio/1_stereo_128000/dash/segment_38.m4s' for reading
frame= 3779 fps=133 q=28.0 size=    6144kB time=00:02:31.59 bitrate= 332.0kbits/s dup=4 drop=0 speed=5.33x    [dash @ 0x55711ebb68c0] Opening 'https://bitmovin-a.akamaihd.net/content/MI201109210084_1/video/180_250000/dash/segment_38.m4s' for reading
[dash @ 0x55711ebb68c0] Opening 'https://bitmovin-a.akamaihd.net/content/MI201109210084_1/audio/1_stereo_128000/dash/segment_39.m4s' for reading
frame= 3878 fps=134 q=28.0 size=    6144kB time=00:02:35.58 bitrate= 323.5kbits/s dup=4 drop=0 speed=5.37x    [dash @ 0x55711ebb68c0] Opening 'https://bitmovin-a.akamaihd.net/content/MI201109210084_1/video/180_250000/dash/segment_39.m4s' for reading
[dash @ 0x55711ebb68c0] Opening 'https://bitmovin-a.akamaihd.net/content/MI201109210084_1/audio/1_stereo_128000/dash/segment_40.m4s' for reading
frame= 3979 fps=134 q=28.0 size=    6400kB time=00:02:39.57 bitrate= 328.6kbits/s dup=4 drop=0 speed=5.38x    [dash @ 0x55711ebb68c0] Opening 'https://bitmovin-a.akamaihd.net/content/MI201109210084_1/video/180_250000/dash/segment_40.m4s' for reading
[dash @ 0x55711ebb68c0] Opening 'https://bitmovin-a.akamaihd.net/content/MI201109210084_1/audio/1_stereo_128000/dash/segment_41.m4s' for reading
frame= 4080 fps=135 q=28.0 size=    6656kB time=00:02:43.56 bitrate= 333.4kbits/s dup=4 drop=0 speed=5.41x    [dash @ 0x55711ebb68c0] Opening 'https://bitmovin-a.akamaihd.net/content/MI201109210084_1/video/180_250000/dash/segment_41.m4s' for reading
[dash @ 0x55711ebb68c0] Opening 'https://bitmovin-a.akamaihd.net/content/MI201109210084_1/audio/1_stereo_128000/dash/segment_42.m4s' for reading
frame= 4178 fps=135 q=28.0 size=    6912kB time=00:02:47.55 bitrate= 337.9kbits/s dup=4 drop=0 speed=5.42x    [dash @ 0x55711ebb68c0] Opening 'https://bitmovin-a.akamaihd.net/content/MI201109210084_1/video/180_250000/dash/segment_42.m4s' for reading
[dash @ 0x55711ebb68c0] Opening 'https://bitmovin-a.akamaihd.net/content/MI201109210084_1/audio/1_stereo_128000/dash/segment_43.m4s' for reading
frame= 4279 fps=136 q=28.0 size=    7168kB time=00:02:51.54 bitrate= 342.3kbits/s dup=4 drop=0 speed=5.45x    [dash @ 0x55711ebb68c0] Opening 'https://bitmovin-a.akamaihd.net/content/MI201109210084_1/video/180_250000/dash/segment_43.m4s' for reading
[dash @ 0x55711ebb68c0] Opening 'https://bitmovin-a.akamaihd.net/content/MI201109210084_1/audio/1_stereo_128000/dash/segment_44.m4s' for reading
frame= 4379 fps=136 q=28.0 size=    7424kB time=00:02:55.50 bitrate= 346.5kbits/s dup=4 drop=0 speed=5.47x    [dash @ 0x55711ebb68c0] Opening 'https://bitmovin-a.akamaihd.net/content/MI201109210084_1/video/180_250000/dash/segment_44.m4s' for reading
[dash @ 0x55711ebb68c0] Opening 'https://bitmovin-a.akamaihd.net/content/MI201109210084_1/audio/1_stereo_128000/dash/segment_45.m4s' for reading
frame= 4477 fps=137 q=28.0 size=    7424kB time=00:02:59.52 bitrate= 338.8kbits/s dup=4 drop=0 speed=5.48x    [dash @ 0x55711ebb68c0] Opening 'https://bitmovin-a.akamaihd.net/content/MI201109210084_1/video/180_250000/dash/segment_45.m4s' for reading
[dash @ 0x55711ebb68c0] Opening 'https://bitmovin-a.akamaihd.net/content/MI201109210084_1/audio/1_stereo_128000/dash/segment_46.m4s' for reading
frame= 4579 fps=137 q=28.0 size=    7680kB time=00:03:03.50 bitrate= 342.8kbits/s dup=4 drop=0 speed=5.49x    [dash @ 0x55711ebb68c0] Opening 'https://bitmovin-a.akamaihd.net/content/MI201109210084_1/video/180_250000/dash/segment_46.m4s' for reading
[dash @ 0x55711ebb68c0] Opening 'https://bitmovin-a.akamaihd.net/content/MI201109210084_1/audio/1_stereo_128000/dash/segment_47.m4s' for reading
frame= 4678 fps=138 q=28.0 size=    7936kB time=00:03:07.49 bitrate= 346.7kbits/s dup=4 drop=0 speed=5.51x    [dash @ 0x55711ebb68c0] Opening 'https://bitmovin-a.akamaihd.net/content/MI201109210084_1/video/180_250000/dash/segment_47.m4s' for reading
[dash @ 0x55711ebb68c0] Opening 'https://bitmovin-a.akamaihd.net/content/MI201109210084_1/audio/1_stereo_128000/dash/segment_48.m4s' for reading
frame= 4778 fps=138 q=28.0 size=    7936kB time=00:03:11.48 bitrate= 339.5kbits/s dup=4 drop=0 speed=5.53x    [dash @ 0x55711ebb68c0] Opening 'https://bitmovin-a.akamaihd.net/content/MI201109210084_1/video/180_250000/dash/segment_48.m4s' for reading
[dash @ 0x55711ebb68c0] Opening 'https://bitmovin-a.akamaihd.net/content/MI201109210084_1/audio/1_stereo_128000/dash/segment_49.m4s' for reading
frame= 4878 fps=138 q=28.0 size=    8192kB time=00:03:15.47 bitrate= 343.3kbits/s dup=4 drop=0 speed=5.55x    [dash @ 0x55711ebb68c0] Opening 'https://bitmovin-a.akamaihd.net/content/MI201109210084_1/video/180_250000/dash/segment_49.m4s' for reading
[dash @ 0x55711ebb68c0] Opening 'https://bitmovin-a.akamaihd.net/content/MI201109210084_1/audio/1_stereo_128000/dash/segment_50.m4s' for reading
frame= 4975 fps=139 q=28.0 size=    8448kB time=00:03:19.46 bitrate= 347.0kbits/s dup=4 drop=0 speed=5.56x    [dash @ 0x55711ebb68c0] Opening 'https://bitmovin-a.akamaihd.net/content/MI201109210084_1/video/180_250000/dash/segment_50.m4s' for reading
[dash @ 0x55711ebb68c0] Opening 'https://bitmovin-a.akamaihd.net/content/MI201109210084_1/audio/1_stereo_128000/dash/segment_51.m4s' for reading
frame= 5075 fps=139 q=28.0 size=    8704kB time=00:03:23.43 bitrate= 350.5kbits/s dup=4 drop=0 speed=5.57x    [dash @ 0x55711ebb68c0] Opening 'https://bitmovin-a.akamaihd.net/content/MI201109210084_1/video/180_250000/dash/segment_51.m4s' for reading
[dash @ 0x55711ebb68c0] Opening 'https://bitmovin-a.akamaihd.net/content/MI201109210084_1/audio/1_stereo_128000/dash/segment_52.m4s' for reading
frame= 5175 fps=139 q=28.0 size=    8960kB time=00:03:27.44 bitrate= 353.8kbits/s dup=4 drop=0 speed=5.56x    [dash @ 0x55711ebb68c0] Opening 'https://bitmovin-a.akamaihd.net/content/MI201109210084_1/video/180_250000/dash/segment_52.m4s' for reading
[dash @ 0x55711ebb68c0] Error when loading first fragment, playlist 0
frame= 5260 fps=139 q=-1.0 Lsize=    9368kB time=00:03:30.32 bitrate= 364.9kbits/s dup=7 drop=0 speed=5.57x    
video:5878kB audio:3334kB subtitle:0kB other streams:0kB global headers:0kB muxing overhead: 1.688853%
[libx264 @ 0x55711f2a6560] frame I:90    Avg QP:20.90  size:  8774
[libx264 @ 0x55711f2a6560] frame P:1738  Avg QP:24.27  size:  1990
[libx264 @ 0x55711f2a6560] frame B:3432  Avg QP:28.95  size:   516
[libx264 @ 0x55711f2a6560] consecutive B-frames:  7.7% 13.2%  8.2% 71.0%
[libx264 @ 0x55711f2a6560] mb I  I16..4: 12.9% 33.1% 54.1%
[libx264 @ 0x55711f2a6560] mb P  I16..4:  1.6%  4.1%  4.8%  P16..4: 33.7% 18.0% 10.9%  0.0%  0.0%    skip:26.9%
[libx264 @ 0x55711f2a6560] mb B  I16..4:  0.2%  0.6%  0.9%  B16..8: 34.5%  7.9%  2.2%  direct: 1.7%  skip:52.0%  L0:40.0% L1:45.9% BI:14.0%
[libx264 @ 0x55711f2a6560] 8x8 transform intra:36.8% inter:46.5%
[libx264 @ 0x55711f2a6560] coded y,uvDC,uvAC intra: 66.2% 82.8% 43.0% inter: 13.8% 12.8% 1.5%
[libx264 @ 0x55711f2a6560] i16 v,h,dc,p: 19% 21%  7% 52%
[libx264 @ 0x55711f2a6560] i8 v,h,dc,ddl,ddr,vr,hd,vl,hu: 27% 19% 15%  5%  6%  6%  7%  6%  8%
[libx264 @ 0x55711f2a6560] i4 v,h,dc,ddl,ddr,vr,hd,vl,hu: 34% 16% 12%  5%  7%  6%  7%  6%  7%
[libx264 @ 0x55711f2a6560] i8c dc,h,v,p: 44% 24% 22% 10%
[libx264 @ 0x55711f2a6560] Weighted P-Frames: Y:4.8% UV:2.9%
[libx264 @ 0x55711f2a6560] ref P L0: 66.9% 17.4% 10.9%  4.7%  0.1%
[libx264 @ 0x55711f2a6560] ref B L0: 91.6%  6.7%  1.7%
[libx264 @ 0x55711f2a6560] ref B L1: 97.6%  2.4%
[libx264 @ 0x55711f2a6560] kb/s:228.82
[aac @ 0x55711f2c4500] Qavg: 584.938
